<svg xmlns="http://www.w3.org/2000/svg" viewBox="0 0 128 128" fill="none"><defs><linearGradient id="bg" x1="18" x2="111" y1="12" y2="116" gradientUnits="userSpaceOnUse"><stop stop-color="#122238"/><stop offset=".58" stop-color="#395b74"/><stop offset="1" stop-color="#29412f"/></linearGradient></defs><rect width="128" height="128" rx="28" fill="url(#bg)"/><path fill="#f59d42" d="M27 76c-9 0-17 6-19 15H2v9h11c3 9 11 15 21 15h54c10 0 18-6 21-15h16c6 0 11-5 11-11 0-5-4-10-9-11l-9-2-16-15c-5-4-11-7-18-7H27Z"/><circle cx="36" cy="101" r="12" fill="#18212d"/><circle cx="90" cy="101" r="12" fill="#18212d"/><circle cx="36" cy="101" r="5" fill="#95a3b3"/><circle cx="90" cy="101" r="5" fill="#95a3b3"/><path d="M78 41 93 26h19" stroke="#d7e5ef" stroke-width="6" stroke-linecap="round"/><text x="27" y="53" fill="#fff" font-family="Inter,Segoe UI,Arial,sans-serif" font-size="32" font-weight="800">KA</text></svg>