<svg xmlns="http://www.w3.org/2000/svg" viewBox="0 0 1200 500" fill="none"><defs><linearGradient id="sky" x1="168" x2="1015" y1="24" y2="475" gradientUnits="userSpaceOnUse"><stop stop-color="#122238"/><stop offset=".48" stop-color="#395b74"/><stop offset="1" stop-color="#29412f"/></linearGradient></defs><rect width="1200" height="500" rx="32" fill="url(#sky)"/><path fill="#dbe3ea" d="m263 266 118-111 69 51 78-95 85 82 83-90 89 79 66-53 171 137H263Z" opacity=".9"/><path fill="#a8bac7" d="m382 268 70-58 74-88 80 70 89-89 86 77 72-47 169 135H382Z" opacity=".72"/><path fill="#214232" d="M0 306c129 23 230 26 344 7 87-15 163-44 246-37 87 7 164 49 272 46 121-3 201-43 338-33v211H0V306Z"/><path fill="#0f2219" d="M0 386c122-10 214-39 326-34 124 4 207 56 336 62 151 7 260-23 538-7v93H0v-114Z"/><path fill="#6d4c2f" d="M132 432c98-4 150-27 196-57 42-26 71-72 117-83 54-13 100 13 145 8 53-6 97-50 141-98 18 38 17 80-3 119-27 54-75 96-135 111H132Z" opacity=".78"/><path fill="#f59d42" d="M420 391c-21 0-39 15-44 35h-37v12h27c5 14 19 24 35 24h141c17 0 31-10 37-24h46c14 0 25-11 25-25 0-12-8-22-19-24l-24-4-41-37c-12-11-27-16-43-16H420Z"/><path fill="#273243" d="M431 393h90c20 0 34 5 48 17l30 26H396c5-25 17-43 35-43Z"/><circle cx="416" cy="437" r="27" fill="#1a2530"/><circle cx="557" cy="437" r="27" fill="#1a2530"/><circle cx="416" cy="437" r="12" fill="#95a3b3"/><circle cx="557" cy="437" r="12" fill="#95a3b3"/><path fill="#b8ccd7" d="M503 397h39v31h-39z"/><path fill="#c8d4dc" d="M663 370h142v12H663z"/><g fill="#163022"><path d="m861 410 19-46 19 46h-15v29h-9v-29h-14Z"/><path d="m907 422 14-31 14 31h-11v17h-6v-17h-11Z"/></g></svg>