<svg xmlns="http://www.w3.org/2000/svg" viewBox="0 0 1200 630" fill="none"><defs><linearGradient id="bg" x1="142" x2="1040" y1="46" y2="590" gradientUnits="userSpaceOnUse"><stop stop-color="#122238"/><stop offset=".55" stop-color="#395b74"/><stop offset="1" stop-color="#29412f"/></linearGradient></defs><rect width="1200" height="630" rx="36" fill="url(#bg)"/><path fill="#dbe4eb" d="m747 428 77-85 58 45 72-80 77 72 54-37 115 84H747Z" opacity=".9"/><path fill="#213f31" d="M642 434c124 10 222-26 334-27 94 0 168 26 224 39v184H642V434Z"/><path fill="#f59d42" d="M730 480c-20 0-37 14-42 32h-35v11h25c5 13 18 22 34 22h136c17 0 30-9 36-22h44c13 0 24-10 24-23 0-11-8-20-18-22l-23-4-38-34c-12-10-26-15-41-15H730Z"/><path fill="#273243" d="M740 482h87c19 0 34 6 46 15l28 25H706c5-23 16-40 34-40Z"/><circle cx="723" cy="522" r="24" fill="#1a2530"/><circle cx="857" cy="522" r="24" fill="#1a2530"/><circle cx="723" cy="522" r="10" fill="#95a3b3"/><circle cx="857" cy="522" r="10" fill="#95a3b3"/><text x="84" y="176" fill="#FFC571" font-family="Inter,Segoe UI,Arial,sans-serif" font-size="28" font-weight="700" letter-spacing="6">KENAI AUTO SALES</text><text x="84" y="276" fill="#fff" font-family="Inter,Segoe UI,Arial,sans-serif" font-size="72" font-weight="800">Kenai Auto Sales</text><text x="84" y="342" fill="#D9E5EE" font-family="Inter,Segoe UI,Arial,sans-serif" font-size="36" font-weight="600">Alaska-ready trucks, SUVs, trailers, boats, and work rigs for the peninsula.</text><text x="84" y="398" fill="#BDEFD6" font-family="Inter,Segoe UI,Arial,sans-serif" font-size="28" font-weight="700">Kenai Peninsula, Alaska</text></svg>